<?xml version="1.0" encoding="UTF-8"?>
<svg id="Layer_1" data-name="Layer 1" xmlns="http://www.w3.org/2000/svg" xmlns:xlink="http://www.w3.org/1999/xlink" viewBox="0 0 87.07 24.67">
  <defs>
    <style>
      .cls-1 {
        fill: #1c1c28;
        font-family: JosefinSans-Medium, 'Josefin Sans';
        font-size: 22.63px;
        font-weight: 500;
      }

      .cls-2 {
        fill: url(#linear-gradient);
      }
    </style>
    <linearGradient id="linear-gradient" x1=".5" y1="16.36" x2="17.34" y2="12.19" gradientUnits="userSpaceOnUse">
      <stop offset="0" stop-color="#543f8c"/>
      <stop offset=".38" stop-color="#785ebd"/>
      <stop offset=".79" stop-color="#9c7dec"/>
      <stop offset="1" stop-color="#aa89ff"/>
    </linearGradient>
  </defs>
  <text class="cls-1" transform="translate(24.95 19.26)"><tspan x="0" y="0">cosvm</tspan></text>
  <path class="cls-2" d="m10.65,20.88l6.44-12.32c.14-.26.11-.57-.08-.8-.75-.93-1.67-1.72-2.72-2.32-.21-.12-.47-.04-.57.18l-4.05,7.42c-.39.79-1.33.52-1.57-.02l-1.37-3.3v.02s-1.59-3.83-1.59-3.83c-.12-.28-.46-.39-.71-.22-1.71,1.09-3.06,2.72-3.79,4.65,0-.03.01-.05.02-.08-.34.88-.56,1.83-.62,2.82,0,.07,0,.14-.01.2,0,.05,0,.1,0,.15,0,.01,0,.02,0,.03,0,.04,0,.09,0,.13,0,.05,0,.11,0,.16,0,.08,0,.15,0,.23,0,.04,0,.08,0,.11,0,.04,0,.08,0,.11,0,.11.01.23.02.34,0,.04,0,.08.01.12.46,4.95,4.63,8.83,9.7,8.83,4.66,0,8.56-3.28,9.52-7.65-1.34,3.49-4.71,4.91-8.62,5.03Z"/>
</svg>